<mxfile host="app.diagrams.net" agent="Mozilla/5.0 (Windows NT 10.0; Win64; x64) AppleWebKit/537.36 (KHTML, like Gecko) Chrome/137.0.0.0 Safari/537.36" version="27.1.6" pages="3">
  <diagram id="wTiHNlemQ_XSRyLINNGn" name="Page-2">
    <mxGraphModel dx="918" dy="489" grid="1" gridSize="10" guides="1" tooltips="1" connect="1" arrows="1" fold="1" page="1" pageScale="1" pageWidth="827" pageHeight="1169" math="0" shadow="0">
      <root>
        <mxCell id="0" />
        <mxCell id="1" parent="0" />
        <mxCell id="AcciYdaACmmBJsn4Pywl-2" value="crm_cust_info" style="swimlane;fontStyle=0;childLayout=stackLayout;horizontal=1;startSize=30;horizontalStack=0;resizeParent=1;resizeParentMax=0;resizeLast=0;collapsible=1;marginBottom=0;whiteSpace=wrap;html=1;rounded=1;gradientDirection=south;fillColor=#dae8fc;strokeColor=#6c8ebf;" parent="1" vertex="1">
          <mxGeometry x="280" y="290" width="140" height="90" as="geometry" />
        </mxCell>
        <mxCell id="AcciYdaACmmBJsn4Pywl-3" value="cst_id" style="text;strokeColor=none;fillColor=none;align=left;verticalAlign=middle;spacingLeft=4;spacingRight=4;overflow=hidden;points=[[0,0.5],[1,0.5]];portConstraint=eastwest;rotatable=0;whiteSpace=wrap;html=1;" parent="AcciYdaACmmBJsn4Pywl-2" vertex="1">
          <mxGeometry y="30" width="140" height="30" as="geometry" />
        </mxCell>
        <mxCell id="AcciYdaACmmBJsn4Pywl-4" value="cst_key" style="text;strokeColor=none;fillColor=none;align=left;verticalAlign=middle;spacingLeft=4;spacingRight=4;overflow=hidden;points=[[0,0.5],[1,0.5]];portConstraint=eastwest;rotatable=0;whiteSpace=wrap;html=1;" parent="AcciYdaACmmBJsn4Pywl-2" vertex="1">
          <mxGeometry y="60" width="140" height="30" as="geometry" />
        </mxCell>
        <mxCell id="AcciYdaACmmBJsn4Pywl-5" value="Item 3" style="text;strokeColor=none;fillColor=none;align=left;verticalAlign=middle;spacingLeft=4;spacingRight=4;overflow=hidden;points=[[0,0.5],[1,0.5]];portConstraint=eastwest;rotatable=0;whiteSpace=wrap;html=1;" parent="AcciYdaACmmBJsn4Pywl-2" vertex="1">
          <mxGeometry y="90" width="140" as="geometry" />
        </mxCell>
        <mxCell id="AcciYdaACmmBJsn4Pywl-7" value="crm_prd_info" style="swimlane;fontStyle=0;childLayout=stackLayout;horizontal=1;startSize=30;horizontalStack=0;resizeParent=1;resizeParentMax=0;resizeLast=0;collapsible=1;marginBottom=0;whiteSpace=wrap;html=1;rounded=1;gradientDirection=south;fillColor=#dae8fc;strokeColor=#6c8ebf;" parent="1" vertex="1">
          <mxGeometry x="280" y="480" width="140" height="60" as="geometry" />
        </mxCell>
        <mxCell id="AcciYdaACmmBJsn4Pywl-9" value="prd_key" style="text;strokeColor=none;fillColor=none;align=left;verticalAlign=middle;spacingLeft=4;spacingRight=4;overflow=hidden;points=[[0,0.5],[1,0.5]];portConstraint=eastwest;rotatable=0;whiteSpace=wrap;html=1;" parent="AcciYdaACmmBJsn4Pywl-7" vertex="1">
          <mxGeometry y="30" width="140" height="30" as="geometry" />
        </mxCell>
        <mxCell id="AcciYdaACmmBJsn4Pywl-10" value="Item 3" style="text;strokeColor=none;fillColor=none;align=left;verticalAlign=middle;spacingLeft=4;spacingRight=4;overflow=hidden;points=[[0,0.5],[1,0.5]];portConstraint=eastwest;rotatable=0;whiteSpace=wrap;html=1;" parent="AcciYdaACmmBJsn4Pywl-7" vertex="1">
          <mxGeometry y="60" width="140" as="geometry" />
        </mxCell>
        <mxCell id="AcciYdaACmmBJsn4Pywl-12" value="crm_sales_details" style="swimlane;fontStyle=0;childLayout=stackLayout;horizontal=1;startSize=30;horizontalStack=0;resizeParent=1;resizeParentMax=0;resizeLast=0;collapsible=1;marginBottom=0;whiteSpace=wrap;html=1;rounded=1;gradientDirection=south;fillColor=#dae8fc;strokeColor=#6c8ebf;" parent="1" vertex="1">
          <mxGeometry x="20" y="380" width="140" height="100" as="geometry" />
        </mxCell>
        <mxCell id="AcciYdaACmmBJsn4Pywl-13" value="sls_cst_id" style="text;strokeColor=none;fillColor=none;align=left;verticalAlign=middle;spacingLeft=4;spacingRight=4;overflow=hidden;points=[[0,0.5],[1,0.5]];portConstraint=eastwest;rotatable=0;whiteSpace=wrap;html=1;" parent="AcciYdaACmmBJsn4Pywl-12" vertex="1">
          <mxGeometry y="30" width="140" height="40" as="geometry" />
        </mxCell>
        <mxCell id="AcciYdaACmmBJsn4Pywl-14" value="sls_prd_key" style="text;strokeColor=none;fillColor=none;align=left;verticalAlign=middle;spacingLeft=4;spacingRight=4;overflow=hidden;points=[[0,0.5],[1,0.5]];portConstraint=eastwest;rotatable=0;whiteSpace=wrap;html=1;" parent="AcciYdaACmmBJsn4Pywl-12" vertex="1">
          <mxGeometry y="70" width="140" height="30" as="geometry" />
        </mxCell>
        <mxCell id="AcciYdaACmmBJsn4Pywl-15" value="Item 3" style="text;strokeColor=none;fillColor=none;align=left;verticalAlign=middle;spacingLeft=4;spacingRight=4;overflow=hidden;points=[[0,0.5],[1,0.5]];portConstraint=eastwest;rotatable=0;whiteSpace=wrap;html=1;" parent="AcciYdaACmmBJsn4Pywl-12" vertex="1">
          <mxGeometry y="100" width="140" as="geometry" />
        </mxCell>
        <mxCell id="AcciYdaACmmBJsn4Pywl-17" value="&lt;span style=&quot;color: rgb(33, 33, 33); font-family: Consolas, &amp;quot;Courier New&amp;quot;, monospace; text-align: left; white-space: pre; background-color: rgb(255, 255, 254);&quot;&gt;erp_cust_az12&lt;/span&gt;" style="swimlane;fontStyle=0;childLayout=stackLayout;horizontal=1;startSize=30;horizontalStack=0;resizeParent=1;resizeParentMax=0;resizeLast=0;collapsible=1;marginBottom=0;whiteSpace=wrap;html=1;rounded=1;gradientDirection=south;fillColor=#fff2cc;strokeColor=#d6b656;" parent="1" vertex="1">
          <mxGeometry x="620" y="290" width="140" height="60" as="geometry" />
        </mxCell>
        <mxCell id="AcciYdaACmmBJsn4Pywl-18" value="cid" style="text;strokeColor=none;fillColor=none;align=left;verticalAlign=middle;spacingLeft=4;spacingRight=4;overflow=hidden;points=[[0,0.5],[1,0.5]];portConstraint=eastwest;rotatable=0;whiteSpace=wrap;html=1;" parent="AcciYdaACmmBJsn4Pywl-17" vertex="1">
          <mxGeometry y="30" width="140" height="30" as="geometry" />
        </mxCell>
        <mxCell id="AcciYdaACmmBJsn4Pywl-20" value="Item 3" style="text;strokeColor=none;fillColor=none;align=left;verticalAlign=middle;spacingLeft=4;spacingRight=4;overflow=hidden;points=[[0,0.5],[1,0.5]];portConstraint=eastwest;rotatable=0;whiteSpace=wrap;html=1;" parent="AcciYdaACmmBJsn4Pywl-17" vertex="1">
          <mxGeometry y="60" width="140" as="geometry" />
        </mxCell>
        <mxCell id="AcciYdaACmmBJsn4Pywl-22" value="erp_loc_a101" style="swimlane;fontStyle=0;childLayout=stackLayout;horizontal=1;startSize=30;horizontalStack=0;resizeParent=1;resizeParentMax=0;resizeLast=0;collapsible=1;marginBottom=0;whiteSpace=wrap;html=1;rounded=1;gradientDirection=south;fillColor=#fff2cc;strokeColor=#d6b656;" parent="1" vertex="1">
          <mxGeometry x="620" y="390" width="140" height="60" as="geometry" />
        </mxCell>
        <mxCell id="AcciYdaACmmBJsn4Pywl-23" value="cid" style="text;strokeColor=none;fillColor=none;align=left;verticalAlign=middle;spacingLeft=4;spacingRight=4;overflow=hidden;points=[[0,0.5],[1,0.5]];portConstraint=eastwest;rotatable=0;whiteSpace=wrap;html=1;" parent="AcciYdaACmmBJsn4Pywl-22" vertex="1">
          <mxGeometry y="30" width="140" height="30" as="geometry" />
        </mxCell>
        <mxCell id="AcciYdaACmmBJsn4Pywl-25" value="Item 3" style="text;strokeColor=none;fillColor=none;align=left;verticalAlign=middle;spacingLeft=4;spacingRight=4;overflow=hidden;points=[[0,0.5],[1,0.5]];portConstraint=eastwest;rotatable=0;whiteSpace=wrap;html=1;" parent="AcciYdaACmmBJsn4Pywl-22" vertex="1">
          <mxGeometry y="60" width="140" as="geometry" />
        </mxCell>
        <mxCell id="AcciYdaACmmBJsn4Pywl-26" value="&lt;div style=&quot;color: rgb(33, 33, 33); background-color: rgb(255, 255, 254); font-family: Consolas, &amp;quot;Courier New&amp;quot;, monospace; line-height: 16px; white-space: pre;&quot;&gt;erp_px_cat_g1v2&lt;/div&gt;" style="swimlane;fontStyle=0;childLayout=stackLayout;horizontal=1;startSize=20;horizontalStack=0;resizeParent=1;resizeParentMax=0;resizeLast=0;collapsible=1;marginBottom=0;whiteSpace=wrap;html=1;rounded=1;gradientDirection=south;fillColor=#fff2cc;strokeColor=#d6b656;" parent="1" vertex="1">
          <mxGeometry x="610" y="560" width="140" height="50" as="geometry" />
        </mxCell>
        <mxCell id="AcciYdaACmmBJsn4Pywl-27" value="id" style="text;strokeColor=none;fillColor=none;align=left;verticalAlign=middle;spacingLeft=4;spacingRight=4;overflow=hidden;points=[[0,0.5],[1,0.5]];portConstraint=eastwest;rotatable=0;whiteSpace=wrap;html=1;" parent="AcciYdaACmmBJsn4Pywl-26" vertex="1">
          <mxGeometry y="20" width="140" height="30" as="geometry" />
        </mxCell>
        <mxCell id="AcciYdaACmmBJsn4Pywl-29" value="Item 3" style="text;strokeColor=none;fillColor=none;align=left;verticalAlign=middle;spacingLeft=4;spacingRight=4;overflow=hidden;points=[[0,0.5],[1,0.5]];portConstraint=eastwest;rotatable=0;whiteSpace=wrap;html=1;" parent="AcciYdaACmmBJsn4Pywl-26" vertex="1">
          <mxGeometry y="50" width="140" as="geometry" />
        </mxCell>
        <mxCell id="AcciYdaACmmBJsn4Pywl-39" style="edgeStyle=orthogonalEdgeStyle;rounded=0;orthogonalLoop=1;jettySize=auto;html=1;exitX=1;exitY=0.5;exitDx=0;exitDy=0;entryX=0.007;entryY=0.2;entryDx=0;entryDy=0;entryPerimeter=0;" parent="1" source="AcciYdaACmmBJsn4Pywl-13" target="AcciYdaACmmBJsn4Pywl-3" edge="1">
          <mxGeometry relative="1" as="geometry" />
        </mxCell>
        <mxCell id="AcciYdaACmmBJsn4Pywl-41" style="edgeStyle=orthogonalEdgeStyle;rounded=0;orthogonalLoop=1;jettySize=auto;html=1;entryX=0;entryY=0.5;entryDx=0;entryDy=0;" parent="1" source="AcciYdaACmmBJsn4Pywl-14" target="AcciYdaACmmBJsn4Pywl-9" edge="1">
          <mxGeometry relative="1" as="geometry" />
        </mxCell>
        <mxCell id="AcciYdaACmmBJsn4Pywl-42" style="edgeStyle=orthogonalEdgeStyle;rounded=0;orthogonalLoop=1;jettySize=auto;html=1;entryX=0;entryY=0.5;entryDx=0;entryDy=0;" parent="1" source="AcciYdaACmmBJsn4Pywl-4" target="AcciYdaACmmBJsn4Pywl-18" edge="1">
          <mxGeometry relative="1" as="geometry" />
        </mxCell>
        <mxCell id="AcciYdaACmmBJsn4Pywl-43" style="edgeStyle=orthogonalEdgeStyle;rounded=0;orthogonalLoop=1;jettySize=auto;html=1;exitX=1;exitY=0.5;exitDx=0;exitDy=0;entryX=0;entryY=0.5;entryDx=0;entryDy=0;" parent="1" source="AcciYdaACmmBJsn4Pywl-4" target="AcciYdaACmmBJsn4Pywl-23" edge="1">
          <mxGeometry relative="1" as="geometry" />
        </mxCell>
        <mxCell id="AcciYdaACmmBJsn4Pywl-44" style="edgeStyle=orthogonalEdgeStyle;rounded=0;orthogonalLoop=1;jettySize=auto;html=1;exitX=0;exitY=0.5;exitDx=0;exitDy=0;" parent="1" source="AcciYdaACmmBJsn4Pywl-27" target="AcciYdaACmmBJsn4Pywl-9" edge="1">
          <mxGeometry relative="1" as="geometry" />
        </mxCell>
        <mxCell id="AcciYdaACmmBJsn4Pywl-45" value="Customer Information" style="text;html=1;align=center;verticalAlign=middle;whiteSpace=wrap;rounded=0;" parent="1" vertex="1">
          <mxGeometry x="300" y="260" width="120" height="30" as="geometry" />
        </mxCell>
        <mxCell id="AcciYdaACmmBJsn4Pywl-46" value="Current and History Information" style="text;html=1;align=center;verticalAlign=middle;whiteSpace=wrap;rounded=0;" parent="1" vertex="1">
          <mxGeometry x="294" y="450" width="120" height="30" as="geometry" />
        </mxCell>
        <mxCell id="AcciYdaACmmBJsn4Pywl-47" value="Transactional Records about Sales &amp;amp; Orders" style="text;html=1;align=center;verticalAlign=middle;whiteSpace=wrap;rounded=0;" parent="1" vertex="1">
          <mxGeometry x="20" y="350" width="150" height="30" as="geometry" />
        </mxCell>
        <mxCell id="AcciYdaACmmBJsn4Pywl-48" value="Extra Product Information" style="text;html=1;align=center;verticalAlign=middle;whiteSpace=wrap;rounded=0;" parent="1" vertex="1">
          <mxGeometry x="605" y="540" width="170" height="30" as="geometry" />
        </mxCell>
        <mxCell id="AcciYdaACmmBJsn4Pywl-49" value="Extra Customer Information(Birthdate)" style="text;html=1;align=center;verticalAlign=middle;whiteSpace=wrap;rounded=0;" parent="1" vertex="1">
          <mxGeometry x="620" y="360" width="120" height="30" as="geometry" />
        </mxCell>
        <mxCell id="AcciYdaACmmBJsn4Pywl-50" value="Extra Customer Information(Birthdate)" style="text;html=1;align=center;verticalAlign=middle;whiteSpace=wrap;rounded=0;" parent="1" vertex="1">
          <mxGeometry x="620" y="260" width="120" height="30" as="geometry" />
        </mxCell>
        <mxCell id="AcciYdaACmmBJsn4Pywl-52" value="&lt;b&gt;&lt;font style=&quot;font-size: 33px;&quot;&gt;Integration Model&lt;/font&gt;&lt;/b&gt;" style="text;html=1;align=left;verticalAlign=middle;whiteSpace=wrap;rounded=0;" parent="1" vertex="1">
          <mxGeometry x="10" y="40" width="360" height="30" as="geometry" />
        </mxCell>
        <mxCell id="AcciYdaACmmBJsn4Pywl-53" value="(How table are related)" style="text;html=1;align=center;verticalAlign=middle;whiteSpace=wrap;rounded=0;" parent="1" vertex="1">
          <mxGeometry x="310" y="50" width="140" height="30" as="geometry" />
        </mxCell>
        <mxCell id="AcciYdaACmmBJsn4Pywl-55" value="" style="rounded=1;whiteSpace=wrap;html=1;fillColor=none;" parent="1" vertex="1">
          <mxGeometry y="220" width="470" height="420" as="geometry" />
        </mxCell>
        <mxCell id="AcciYdaACmmBJsn4Pywl-58" value="&lt;b&gt;&lt;font style=&quot;font-size: 21px;&quot;&gt;CRM&lt;/font&gt;&lt;/b&gt;" style="rounded=1;whiteSpace=wrap;html=1;fillColor=#dae8fc;strokeColor=#6c8ebf;" parent="1" vertex="1">
          <mxGeometry x="185" y="160" width="120" height="60" as="geometry" />
        </mxCell>
        <mxCell id="AcciYdaACmmBJsn4Pywl-61" value="" style="rounded=1;whiteSpace=wrap;html=1;fillColor=none;" parent="1" vertex="1">
          <mxGeometry x="507" y="220" width="320" height="410" as="geometry" />
        </mxCell>
        <mxCell id="AcciYdaACmmBJsn4Pywl-62" value="&lt;b&gt;&lt;font style=&quot;font-size: 21px;&quot;&gt;ERP&lt;/font&gt;&lt;/b&gt;" style="rounded=1;whiteSpace=wrap;html=1;fillColor=#fff2cc;strokeColor=#d6b656;" parent="1" vertex="1">
          <mxGeometry x="620" y="160" width="120" height="60" as="geometry" />
        </mxCell>
      </root>
    </mxGraphModel>
  </diagram>
  <diagram id="v9F7dTMZTuzDfbuoHt2O" name="Page-3">
    <mxGraphModel dx="1026" dy="547" grid="1" gridSize="10" guides="1" tooltips="1" connect="1" arrows="1" fold="1" page="1" pageScale="1" pageWidth="827" pageHeight="1169" math="0" shadow="0">
      <root>
        <mxCell id="0" />
        <mxCell id="1" parent="0" />
        <mxCell id="LEt24xyjE4T3hjxzu-7w-1" value="gold.dim_customers" style="swimlane;fontStyle=0;childLayout=stackLayout;horizontal=1;startSize=26;fillColor=#fff2cc;horizontalStack=0;resizeParent=1;resizeParentMax=0;resizeLast=0;collapsible=1;marginBottom=0;whiteSpace=wrap;html=1;strokeColor=none;rounded=1;strokeWidth=3;swimlaneLine=0;swimlaneFillColor=default;" vertex="1" parent="1">
          <mxGeometry x="30" y="100" width="140" height="302" as="geometry" />
        </mxCell>
        <mxCell id="LEt24xyjE4T3hjxzu-7w-2" value="customer_key&amp;nbsp; &amp;nbsp; &amp;nbsp;&lt;b&gt;PK&amp;nbsp; &amp;nbsp;&lt;/b&gt;" style="text;strokeColor=none;fillColor=none;align=left;verticalAlign=top;spacingLeft=4;spacingRight=4;overflow=hidden;rotatable=0;points=[[0,0.5],[1,0.5]];portConstraint=eastwest;whiteSpace=wrap;html=1;" vertex="1" parent="LEt24xyjE4T3hjxzu-7w-1">
          <mxGeometry y="26" width="140" height="26" as="geometry" />
        </mxCell>
        <mxCell id="LEt24xyjE4T3hjxzu-7w-3" value="customer_id&amp;nbsp; &amp;nbsp; &amp;nbsp; &amp;nbsp;&amp;nbsp;" style="text;strokeColor=none;fillColor=none;align=left;verticalAlign=top;spacingLeft=4;spacingRight=4;overflow=hidden;rotatable=0;points=[[0,0.5],[1,0.5]];portConstraint=eastwest;whiteSpace=wrap;html=1;" vertex="1" parent="LEt24xyjE4T3hjxzu-7w-1">
          <mxGeometry y="52" width="140" height="26" as="geometry" />
        </mxCell>
        <mxCell id="LEt24xyjE4T3hjxzu-7w-4" value="firstname" style="text;strokeColor=none;fillColor=none;align=left;verticalAlign=top;spacingLeft=4;spacingRight=4;overflow=hidden;rotatable=0;points=[[0,0.5],[1,0.5]];portConstraint=eastwest;whiteSpace=wrap;html=1;" vertex="1" parent="LEt24xyjE4T3hjxzu-7w-1">
          <mxGeometry y="78" width="140" height="32" as="geometry" />
        </mxCell>
        <mxCell id="LEt24xyjE4T3hjxzu-7w-6" value="lastname" style="text;strokeColor=none;fillColor=none;align=left;verticalAlign=top;spacingLeft=4;spacingRight=4;overflow=hidden;rotatable=0;points=[[0,0.5],[1,0.5]];portConstraint=eastwest;whiteSpace=wrap;html=1;" vertex="1" parent="LEt24xyjE4T3hjxzu-7w-1">
          <mxGeometry y="110" width="140" height="32" as="geometry" />
        </mxCell>
        <mxCell id="LEt24xyjE4T3hjxzu-7w-7" value="marital_status" style="text;strokeColor=none;fillColor=none;align=left;verticalAlign=top;spacingLeft=4;spacingRight=4;overflow=hidden;rotatable=0;points=[[0,0.5],[1,0.5]];portConstraint=eastwest;whiteSpace=wrap;html=1;" vertex="1" parent="LEt24xyjE4T3hjxzu-7w-1">
          <mxGeometry y="142" width="140" height="32" as="geometry" />
        </mxCell>
        <mxCell id="LEt24xyjE4T3hjxzu-7w-8" value="gender" style="text;strokeColor=none;fillColor=none;align=left;verticalAlign=top;spacingLeft=4;spacingRight=4;overflow=hidden;rotatable=0;points=[[0,0.5],[1,0.5]];portConstraint=eastwest;whiteSpace=wrap;html=1;" vertex="1" parent="LEt24xyjE4T3hjxzu-7w-1">
          <mxGeometry y="174" width="140" height="32" as="geometry" />
        </mxCell>
        <mxCell id="LEt24xyjE4T3hjxzu-7w-9" value="create_date" style="text;strokeColor=none;fillColor=none;align=left;verticalAlign=top;spacingLeft=4;spacingRight=4;overflow=hidden;rotatable=0;points=[[0,0.5],[1,0.5]];portConstraint=eastwest;whiteSpace=wrap;html=1;" vertex="1" parent="LEt24xyjE4T3hjxzu-7w-1">
          <mxGeometry y="206" width="140" height="32" as="geometry" />
        </mxCell>
        <mxCell id="LEt24xyjE4T3hjxzu-7w-10" value="birthdate" style="text;strokeColor=none;fillColor=none;align=left;verticalAlign=top;spacingLeft=4;spacingRight=4;overflow=hidden;rotatable=0;points=[[0,0.5],[1,0.5]];portConstraint=eastwest;whiteSpace=wrap;html=1;" vertex="1" parent="LEt24xyjE4T3hjxzu-7w-1">
          <mxGeometry y="238" width="140" height="32" as="geometry" />
        </mxCell>
        <mxCell id="LEt24xyjE4T3hjxzu-7w-11" value="country" style="text;strokeColor=none;fillColor=none;align=left;verticalAlign=top;spacingLeft=4;spacingRight=4;overflow=hidden;rotatable=0;points=[[0,0.5],[1,0.5]];portConstraint=eastwest;whiteSpace=wrap;html=1;" vertex="1" parent="LEt24xyjE4T3hjxzu-7w-1">
          <mxGeometry y="270" width="140" height="32" as="geometry" />
        </mxCell>
        <mxCell id="LEt24xyjE4T3hjxzu-7w-12" value="gold.dim_products" style="swimlane;fontStyle=0;childLayout=stackLayout;horizontal=1;startSize=26;fillColor=#dae8fc;horizontalStack=0;resizeParent=1;resizeParentMax=0;resizeLast=0;collapsible=1;marginBottom=0;whiteSpace=wrap;html=1;strokeColor=#6c8ebf;rounded=1;swimlaneFillColor=default;" vertex="1" parent="1">
          <mxGeometry x="630" y="104" width="140" height="366" as="geometry" />
        </mxCell>
        <mxCell id="LEt24xyjE4T3hjxzu-7w-13" value="product_key&amp;nbsp; &amp;nbsp; &amp;nbsp; &amp;nbsp; &lt;b&gt;&amp;nbsp;PK&lt;/b&gt;" style="text;strokeColor=none;fillColor=none;align=left;verticalAlign=top;spacingLeft=4;spacingRight=4;overflow=hidden;rotatable=0;points=[[0,0.5],[1,0.5]];portConstraint=eastwest;whiteSpace=wrap;html=1;" vertex="1" parent="LEt24xyjE4T3hjxzu-7w-12">
          <mxGeometry y="26" width="140" height="26" as="geometry" />
        </mxCell>
        <mxCell id="LEt24xyjE4T3hjxzu-7w-14" value="product_id" style="text;strokeColor=none;fillColor=none;align=left;verticalAlign=top;spacingLeft=4;spacingRight=4;overflow=hidden;rotatable=0;points=[[0,0.5],[1,0.5]];portConstraint=eastwest;whiteSpace=wrap;html=1;" vertex="1" parent="LEt24xyjE4T3hjxzu-7w-12">
          <mxGeometry y="52" width="140" height="26" as="geometry" />
        </mxCell>
        <mxCell id="LEt24xyjE4T3hjxzu-7w-15" value="product_number" style="text;strokeColor=none;fillColor=none;align=left;verticalAlign=top;spacingLeft=4;spacingRight=4;overflow=hidden;rotatable=0;points=[[0,0.5],[1,0.5]];portConstraint=eastwest;whiteSpace=wrap;html=1;" vertex="1" parent="LEt24xyjE4T3hjxzu-7w-12">
          <mxGeometry y="78" width="140" height="32" as="geometry" />
        </mxCell>
        <mxCell id="LEt24xyjE4T3hjxzu-7w-16" value="product_name" style="text;strokeColor=none;fillColor=none;align=left;verticalAlign=top;spacingLeft=4;spacingRight=4;overflow=hidden;rotatable=0;points=[[0,0.5],[1,0.5]];portConstraint=eastwest;whiteSpace=wrap;html=1;" vertex="1" parent="LEt24xyjE4T3hjxzu-7w-12">
          <mxGeometry y="110" width="140" height="32" as="geometry" />
        </mxCell>
        <mxCell id="LEt24xyjE4T3hjxzu-7w-17" value="category_id" style="text;strokeColor=none;fillColor=none;align=left;verticalAlign=top;spacingLeft=4;spacingRight=4;overflow=hidden;rotatable=0;points=[[0,0.5],[1,0.5]];portConstraint=eastwest;whiteSpace=wrap;html=1;" vertex="1" parent="LEt24xyjE4T3hjxzu-7w-12">
          <mxGeometry y="142" width="140" height="32" as="geometry" />
        </mxCell>
        <mxCell id="LEt24xyjE4T3hjxzu-7w-18" value="category" style="text;strokeColor=none;fillColor=none;align=left;verticalAlign=top;spacingLeft=4;spacingRight=4;overflow=hidden;rotatable=0;points=[[0,0.5],[1,0.5]];portConstraint=eastwest;whiteSpace=wrap;html=1;" vertex="1" parent="LEt24xyjE4T3hjxzu-7w-12">
          <mxGeometry y="174" width="140" height="32" as="geometry" />
        </mxCell>
        <mxCell id="LEt24xyjE4T3hjxzu-7w-19" value="subcategory" style="text;strokeColor=none;fillColor=none;align=left;verticalAlign=top;spacingLeft=4;spacingRight=4;overflow=hidden;rotatable=0;points=[[0,0.5],[1,0.5]];portConstraint=eastwest;whiteSpace=wrap;html=1;" vertex="1" parent="LEt24xyjE4T3hjxzu-7w-12">
          <mxGeometry y="206" width="140" height="32" as="geometry" />
        </mxCell>
        <mxCell id="LEt24xyjE4T3hjxzu-7w-20" value="maintenance" style="text;strokeColor=none;fillColor=none;align=left;verticalAlign=top;spacingLeft=4;spacingRight=4;overflow=hidden;rotatable=0;points=[[0,0.5],[1,0.5]];portConstraint=eastwest;whiteSpace=wrap;html=1;" vertex="1" parent="LEt24xyjE4T3hjxzu-7w-12">
          <mxGeometry y="238" width="140" height="32" as="geometry" />
        </mxCell>
        <mxCell id="LEt24xyjE4T3hjxzu-7w-21" value="cost" style="text;strokeColor=none;fillColor=none;align=left;verticalAlign=top;spacingLeft=4;spacingRight=4;overflow=hidden;rotatable=0;points=[[0,0.5],[1,0.5]];portConstraint=eastwest;whiteSpace=wrap;html=1;" vertex="1" parent="LEt24xyjE4T3hjxzu-7w-12">
          <mxGeometry y="270" width="140" height="32" as="geometry" />
        </mxCell>
        <mxCell id="LEt24xyjE4T3hjxzu-7w-23" value="product_line" style="text;strokeColor=none;fillColor=none;align=left;verticalAlign=top;spacingLeft=4;spacingRight=4;overflow=hidden;rotatable=0;points=[[0,0.5],[1,0.5]];portConstraint=eastwest;whiteSpace=wrap;html=1;" vertex="1" parent="LEt24xyjE4T3hjxzu-7w-12">
          <mxGeometry y="302" width="140" height="32" as="geometry" />
        </mxCell>
        <mxCell id="LEt24xyjE4T3hjxzu-7w-24" value="start_date" style="text;strokeColor=none;fillColor=none;align=left;verticalAlign=top;spacingLeft=4;spacingRight=4;overflow=hidden;rotatable=0;points=[[0,0.5],[1,0.5]];portConstraint=eastwest;whiteSpace=wrap;html=1;" vertex="1" parent="LEt24xyjE4T3hjxzu-7w-12">
          <mxGeometry y="334" width="140" height="32" as="geometry" />
        </mxCell>
        <mxCell id="LEt24xyjE4T3hjxzu-7w-26" value="fact_sales" style="swimlane;fontStyle=0;childLayout=stackLayout;horizontal=1;startSize=26;fillColor=#e3c800;horizontalStack=0;resizeParent=1;resizeParentMax=0;resizeLast=0;collapsible=1;marginBottom=0;whiteSpace=wrap;html=1;strokeColor=#B09500;rounded=1;fontColor=#000000;swimlaneFillColor=default;" vertex="1" parent="1">
          <mxGeometry x="343.5" y="104" width="140" height="302" as="geometry" />
        </mxCell>
        <mxCell id="LEt24xyjE4T3hjxzu-7w-27" value="order_number" style="text;strokeColor=none;fillColor=none;align=left;verticalAlign=top;spacingLeft=4;spacingRight=4;overflow=hidden;rotatable=0;points=[[0,0.5],[1,0.5]];portConstraint=eastwest;whiteSpace=wrap;html=1;" vertex="1" parent="LEt24xyjE4T3hjxzu-7w-26">
          <mxGeometry y="26" width="140" height="26" as="geometry" />
        </mxCell>
        <mxCell id="LEt24xyjE4T3hjxzu-7w-28" value="product_key&amp;nbsp; &amp;nbsp; &amp;nbsp; &amp;nbsp; &amp;nbsp;&lt;b&gt;FK1&lt;/b&gt;" style="text;strokeColor=none;fillColor=none;align=left;verticalAlign=top;spacingLeft=4;spacingRight=4;overflow=hidden;rotatable=0;points=[[0,0.5],[1,0.5]];portConstraint=eastwest;whiteSpace=wrap;html=1;" vertex="1" parent="LEt24xyjE4T3hjxzu-7w-26">
          <mxGeometry y="52" width="140" height="26" as="geometry" />
        </mxCell>
        <mxCell id="LEt24xyjE4T3hjxzu-7w-29" value="customer_key&amp;nbsp; &amp;nbsp; &amp;nbsp; &lt;b&gt;FK2&lt;/b&gt;" style="text;strokeColor=none;fillColor=none;align=left;verticalAlign=top;spacingLeft=4;spacingRight=4;overflow=hidden;rotatable=0;points=[[0,0.5],[1,0.5]];portConstraint=eastwest;whiteSpace=wrap;html=1;" vertex="1" parent="LEt24xyjE4T3hjxzu-7w-26">
          <mxGeometry y="78" width="140" height="32" as="geometry" />
        </mxCell>
        <mxCell id="LEt24xyjE4T3hjxzu-7w-30" value="order_date" style="text;strokeColor=none;fillColor=none;align=left;verticalAlign=top;spacingLeft=4;spacingRight=4;overflow=hidden;rotatable=0;points=[[0,0.5],[1,0.5]];portConstraint=eastwest;whiteSpace=wrap;html=1;" vertex="1" parent="LEt24xyjE4T3hjxzu-7w-26">
          <mxGeometry y="110" width="140" height="32" as="geometry" />
        </mxCell>
        <mxCell id="LEt24xyjE4T3hjxzu-7w-31" value="shipping_date" style="text;strokeColor=none;fillColor=none;align=left;verticalAlign=top;spacingLeft=4;spacingRight=4;overflow=hidden;rotatable=0;points=[[0,0.5],[1,0.5]];portConstraint=eastwest;whiteSpace=wrap;html=1;" vertex="1" parent="LEt24xyjE4T3hjxzu-7w-26">
          <mxGeometry y="142" width="140" height="32" as="geometry" />
        </mxCell>
        <mxCell id="LEt24xyjE4T3hjxzu-7w-32" value="due_date" style="text;strokeColor=none;fillColor=none;align=left;verticalAlign=top;spacingLeft=4;spacingRight=4;overflow=hidden;rotatable=0;points=[[0,0.5],[1,0.5]];portConstraint=eastwest;whiteSpace=wrap;html=1;" vertex="1" parent="LEt24xyjE4T3hjxzu-7w-26">
          <mxGeometry y="174" width="140" height="32" as="geometry" />
        </mxCell>
        <mxCell id="LEt24xyjE4T3hjxzu-7w-33" value="sales_amount" style="text;strokeColor=none;fillColor=none;align=left;verticalAlign=top;spacingLeft=4;spacingRight=4;overflow=hidden;rotatable=0;points=[[0,0.5],[1,0.5]];portConstraint=eastwest;whiteSpace=wrap;html=1;" vertex="1" parent="LEt24xyjE4T3hjxzu-7w-26">
          <mxGeometry y="206" width="140" height="32" as="geometry" />
        </mxCell>
        <mxCell id="LEt24xyjE4T3hjxzu-7w-34" value="quantity" style="text;strokeColor=none;fillColor=none;align=left;verticalAlign=top;spacingLeft=4;spacingRight=4;overflow=hidden;rotatable=0;points=[[0,0.5],[1,0.5]];portConstraint=eastwest;whiteSpace=wrap;html=1;" vertex="1" parent="LEt24xyjE4T3hjxzu-7w-26">
          <mxGeometry y="238" width="140" height="32" as="geometry" />
        </mxCell>
        <mxCell id="LEt24xyjE4T3hjxzu-7w-35" value="price" style="text;strokeColor=none;fillColor=none;align=left;verticalAlign=top;spacingLeft=4;spacingRight=4;overflow=hidden;rotatable=0;points=[[0,0.5],[1,0.5]];portConstraint=eastwest;whiteSpace=wrap;html=1;" vertex="1" parent="LEt24xyjE4T3hjxzu-7w-26">
          <mxGeometry y="270" width="140" height="32" as="geometry" />
        </mxCell>
        <mxCell id="LEt24xyjE4T3hjxzu-7w-40" value="" style="edgeStyle=entityRelationEdgeStyle;fontSize=12;html=1;endArrow=ERzeroToMany;startArrow=ERmandOne;rounded=0;exitX=1;exitY=0.5;exitDx=0;exitDy=0;entryX=0;entryY=0.5;entryDx=0;entryDy=0;" edge="1" parent="1" source="LEt24xyjE4T3hjxzu-7w-2" target="LEt24xyjE4T3hjxzu-7w-29">
          <mxGeometry width="100" height="100" relative="1" as="geometry">
            <mxPoint x="200" y="210" as="sourcePoint" />
            <mxPoint x="300" y="110" as="targetPoint" />
          </mxGeometry>
        </mxCell>
        <mxCell id="LEt24xyjE4T3hjxzu-7w-41" value="" style="edgeStyle=entityRelationEdgeStyle;fontSize=12;html=1;endArrow=ERzeroToOne;startArrow=ERmandOne;rounded=0;exitX=1;exitY=0.5;exitDx=0;exitDy=0;entryX=0;entryY=0.5;entryDx=0;entryDy=0;" edge="1" parent="1" source="LEt24xyjE4T3hjxzu-7w-28" target="LEt24xyjE4T3hjxzu-7w-13">
          <mxGeometry width="100" height="100" relative="1" as="geometry">
            <mxPoint x="540" y="230" as="sourcePoint" />
            <mxPoint x="640" y="130" as="targetPoint" />
          </mxGeometry>
        </mxCell>
        <mxCell id="LEt24xyjE4T3hjxzu-7w-42" value="&lt;b&gt;&lt;u&gt;Sales Calculation&lt;/u&gt;&lt;/b&gt;&lt;div&gt;&lt;b&gt;&lt;u&gt;&lt;br&gt;&lt;/u&gt;&lt;/b&gt;&lt;div&gt;Sales= quantity * price&lt;/div&gt;&lt;/div&gt;" style="rounded=1;whiteSpace=wrap;html=1;" vertex="1" parent="1">
          <mxGeometry x="390" y="420" width="176" height="80" as="geometry" />
        </mxCell>
        <mxCell id="LEt24xyjE4T3hjxzu-7w-43" value="" style="endArrow=none;html=1;rounded=0;exitX=0.5;exitY=0;exitDx=0;exitDy=0;dashed=1;" edge="1" parent="1" source="LEt24xyjE4T3hjxzu-7w-42" target="LEt24xyjE4T3hjxzu-7w-33">
          <mxGeometry width="50" height="50" relative="1" as="geometry">
            <mxPoint x="460" y="350" as="sourcePoint" />
            <mxPoint x="510" y="300" as="targetPoint" />
          </mxGeometry>
        </mxCell>
        <mxCell id="LEt24xyjE4T3hjxzu-7w-46" value="&lt;font style=&quot;font-size: 18px;&quot;&gt;&lt;b style=&quot;&quot;&gt;&lt;font style=&quot;&quot;&gt;Sales Data Mart&lt;/font&gt;&lt;/b&gt; &lt;/font&gt;(Star Schema)" style="rounded=0;whiteSpace=wrap;html=1;" vertex="1" parent="1">
          <mxGeometry x="10" width="220" height="60" as="geometry" />
        </mxCell>
      </root>
    </mxGraphModel>
  </diagram>
  <diagram id="R2N9xhZ5b_Dqq9Dt6DVo" name="Page-4">
    <mxGraphModel dx="1699" dy="1634" grid="1" gridSize="10" guides="1" tooltips="1" connect="1" arrows="1" fold="1" page="1" pageScale="1" pageWidth="827" pageHeight="1169" math="0" shadow="0">
      <root>
        <mxCell id="0" />
        <mxCell id="1" parent="0" />
        <mxCell id="DOotTKwrrB6Uc6Kk3sbr-1" value="" style="shape=table;startSize=0;container=1;collapsible=0;childLayout=tableLayout;rounded=1;swimlaneFillColor=default;fillColor=none;" vertex="1" parent="1">
          <mxGeometry x="40" y="50" width="140" height="270" as="geometry" />
        </mxCell>
        <mxCell id="DOotTKwrrB6Uc6Kk3sbr-2" value="" style="shape=tableRow;horizontal=0;startSize=0;swimlaneHead=0;swimlaneBody=0;strokeColor=inherit;top=0;left=0;bottom=0;right=0;collapsible=0;dropTarget=0;fillColor=none;points=[[0,0.5],[1,0.5]];portConstraint=eastwest;rounded=1;" vertex="1" parent="DOotTKwrrB6Uc6Kk3sbr-1">
          <mxGeometry width="140" height="270" as="geometry" />
        </mxCell>
        <mxCell id="DOotTKwrrB6Uc6Kk3sbr-3" value="" style="shape=partialRectangle;html=1;whiteSpace=wrap;connectable=0;strokeColor=inherit;overflow=hidden;fillColor=none;top=0;left=0;bottom=0;right=0;pointerEvents=1;" vertex="1" parent="DOotTKwrrB6Uc6Kk3sbr-2">
          <mxGeometry width="140" height="270" as="geometry">
            <mxRectangle width="140" height="270" as="alternateBounds" />
          </mxGeometry>
        </mxCell>
        <mxCell id="DOotTKwrrB6Uc6Kk3sbr-4" value="Sources" style="text;html=1;align=center;verticalAlign=middle;whiteSpace=wrap;rounded=1;fillColor=default;" vertex="1" parent="1">
          <mxGeometry x="70" y="30" width="70" height="30" as="geometry" />
        </mxCell>
        <mxCell id="DOotTKwrrB6Uc6Kk3sbr-30" style="edgeStyle=orthogonalEdgeStyle;rounded=0;orthogonalLoop=1;jettySize=auto;html=1;entryX=0;entryY=0.5;entryDx=0;entryDy=0;" edge="1" parent="1" source="DOotTKwrrB6Uc6Kk3sbr-5" target="DOotTKwrrB6Uc6Kk3sbr-10">
          <mxGeometry relative="1" as="geometry">
            <Array as="points">
              <mxPoint x="190" y="155" />
              <mxPoint x="190" y="110" />
            </Array>
          </mxGeometry>
        </mxCell>
        <mxCell id="DOotTKwrrB6Uc6Kk3sbr-31" style="edgeStyle=orthogonalEdgeStyle;rounded=0;orthogonalLoop=1;jettySize=auto;html=1;entryX=0;entryY=0.75;entryDx=0;entryDy=0;" edge="1" parent="1" source="DOotTKwrrB6Uc6Kk3sbr-5" target="DOotTKwrrB6Uc6Kk3sbr-13">
          <mxGeometry relative="1" as="geometry" />
        </mxCell>
        <mxCell id="DOotTKwrrB6Uc6Kk3sbr-32" style="edgeStyle=orthogonalEdgeStyle;rounded=0;orthogonalLoop=1;jettySize=auto;html=1;" edge="1" parent="1" source="DOotTKwrrB6Uc6Kk3sbr-5" target="DOotTKwrrB6Uc6Kk3sbr-14">
          <mxGeometry relative="1" as="geometry">
            <Array as="points">
              <mxPoint x="190" y="155" />
              <mxPoint x="190" y="190" />
            </Array>
          </mxGeometry>
        </mxCell>
        <mxCell id="DOotTKwrrB6Uc6Kk3sbr-5" value="CRM" style="rounded=1;whiteSpace=wrap;html=1;" vertex="1" parent="1">
          <mxGeometry x="72.5" y="130" width="65" height="50" as="geometry" />
        </mxCell>
        <mxCell id="DOotTKwrrB6Uc6Kk3sbr-33" style="edgeStyle=orthogonalEdgeStyle;rounded=0;orthogonalLoop=1;jettySize=auto;html=1;" edge="1" parent="1" source="DOotTKwrrB6Uc6Kk3sbr-6" target="DOotTKwrrB6Uc6Kk3sbr-15">
          <mxGeometry relative="1" as="geometry" />
        </mxCell>
        <mxCell id="DOotTKwrrB6Uc6Kk3sbr-34" style="edgeStyle=orthogonalEdgeStyle;rounded=0;orthogonalLoop=1;jettySize=auto;html=1;entryX=0;entryY=0.25;entryDx=0;entryDy=0;" edge="1" parent="1" source="DOotTKwrrB6Uc6Kk3sbr-6" target="DOotTKwrrB6Uc6Kk3sbr-16">
          <mxGeometry relative="1" as="geometry" />
        </mxCell>
        <mxCell id="DOotTKwrrB6Uc6Kk3sbr-35" style="edgeStyle=orthogonalEdgeStyle;rounded=0;orthogonalLoop=1;jettySize=auto;html=1;entryX=0;entryY=0.5;entryDx=0;entryDy=0;" edge="1" parent="1" source="DOotTKwrrB6Uc6Kk3sbr-6" target="DOotTKwrrB6Uc6Kk3sbr-17">
          <mxGeometry relative="1" as="geometry" />
        </mxCell>
        <mxCell id="DOotTKwrrB6Uc6Kk3sbr-6" value="ERP" style="rounded=1;whiteSpace=wrap;html=1;" vertex="1" parent="1">
          <mxGeometry x="70" y="240" width="70" height="50" as="geometry" />
        </mxCell>
        <mxCell id="DOotTKwrrB6Uc6Kk3sbr-7" value="Bronze Layer" style="swimlane;whiteSpace=wrap;html=1;rounded=1;fillColor=#fff2cc;strokeColor=#d6b656;" vertex="1" parent="1">
          <mxGeometry x="220" y="50" width="180" height="270" as="geometry" />
        </mxCell>
        <mxCell id="DOotTKwrrB6Uc6Kk3sbr-10" value="crm_sales_details" style="rounded=1;whiteSpace=wrap;html=1;fillColor=#fff2cc;strokeColor=#d6b656;" vertex="1" parent="DOotTKwrrB6Uc6Kk3sbr-7">
          <mxGeometry x="20" y="50" width="120" height="20" as="geometry" />
        </mxCell>
        <mxCell id="DOotTKwrrB6Uc6Kk3sbr-13" value="crm_cust_info" style="rounded=1;whiteSpace=wrap;html=1;fillColor=#fff2cc;strokeColor=#d6b656;" vertex="1" parent="DOotTKwrrB6Uc6Kk3sbr-7">
          <mxGeometry x="20" y="90" width="120" height="20" as="geometry" />
        </mxCell>
        <mxCell id="DOotTKwrrB6Uc6Kk3sbr-14" value="crm_prd_info" style="rounded=1;whiteSpace=wrap;html=1;fillColor=#fff2cc;strokeColor=#d6b656;" vertex="1" parent="DOotTKwrrB6Uc6Kk3sbr-7">
          <mxGeometry x="20" y="130" width="120" height="20" as="geometry" />
        </mxCell>
        <mxCell id="DOotTKwrrB6Uc6Kk3sbr-15" value="erp_cust_az12" style="rounded=1;whiteSpace=wrap;html=1;fillColor=#fff2cc;strokeColor=#d6b656;" vertex="1" parent="DOotTKwrrB6Uc6Kk3sbr-7">
          <mxGeometry x="20" y="170" width="120" height="20" as="geometry" />
        </mxCell>
        <mxCell id="DOotTKwrrB6Uc6Kk3sbr-16" value="erp_loc_a101" style="rounded=1;whiteSpace=wrap;html=1;fillColor=#fff2cc;strokeColor=#d6b656;" vertex="1" parent="DOotTKwrrB6Uc6Kk3sbr-7">
          <mxGeometry x="20" y="210" width="120" height="20" as="geometry" />
        </mxCell>
        <mxCell id="DOotTKwrrB6Uc6Kk3sbr-17" value="erp_px_cat_g1v2" style="rounded=1;whiteSpace=wrap;html=1;fillColor=#fff2cc;strokeColor=#d6b656;" vertex="1" parent="DOotTKwrrB6Uc6Kk3sbr-7">
          <mxGeometry x="20" y="250" width="120" height="20" as="geometry" />
        </mxCell>
        <mxCell id="DOotTKwrrB6Uc6Kk3sbr-9" value="Gold Layer" style="swimlane;whiteSpace=wrap;html=1;rounded=1;fillColor=#fff2cc;gradientColor=#ffd966;strokeColor=#d6b656;" vertex="1" parent="1">
          <mxGeometry x="650" y="50" width="170" height="270" as="geometry" />
        </mxCell>
        <mxCell id="DOotTKwrrB6Uc6Kk3sbr-27" value="dim_customers" style="rounded=1;whiteSpace=wrap;html=1;fillColor=#fff2cc;gradientColor=#ffd966;strokeColor=#d6b656;" vertex="1" parent="DOotTKwrrB6Uc6Kk3sbr-9">
          <mxGeometry x="20" y="190" width="120" height="20" as="geometry" />
        </mxCell>
        <mxCell id="DOotTKwrrB6Uc6Kk3sbr-28" value="dim_products" style="rounded=1;whiteSpace=wrap;html=1;fillColor=#fff2cc;gradientColor=#ffd966;strokeColor=#d6b656;" vertex="1" parent="DOotTKwrrB6Uc6Kk3sbr-9">
          <mxGeometry x="20" y="125" width="120" height="20" as="geometry" />
        </mxCell>
        <mxCell id="DOotTKwrrB6Uc6Kk3sbr-29" value="fact_sales" style="rounded=1;whiteSpace=wrap;html=1;fillColor=#fff2cc;gradientColor=#ffd966;strokeColor=#d6b656;" vertex="1" parent="DOotTKwrrB6Uc6Kk3sbr-9">
          <mxGeometry x="20" y="50" width="120" height="20" as="geometry" />
        </mxCell>
        <mxCell id="DOotTKwrrB6Uc6Kk3sbr-20" value="Silver Layer" style="swimlane;whiteSpace=wrap;html=1;rounded=1;fillColor=#FFFFFF;strokeColor=#000000;" vertex="1" parent="1">
          <mxGeometry x="430" y="50" width="180" height="270" as="geometry" />
        </mxCell>
        <mxCell id="DOotTKwrrB6Uc6Kk3sbr-21" value="crm_sales_details" style="rounded=1;whiteSpace=wrap;html=1;" vertex="1" parent="DOotTKwrrB6Uc6Kk3sbr-20">
          <mxGeometry x="20" y="50" width="120" height="20" as="geometry" />
        </mxCell>
        <mxCell id="DOotTKwrrB6Uc6Kk3sbr-22" value="crm_cust_info" style="rounded=1;whiteSpace=wrap;html=1;" vertex="1" parent="DOotTKwrrB6Uc6Kk3sbr-20">
          <mxGeometry x="20" y="90" width="120" height="20" as="geometry" />
        </mxCell>
        <mxCell id="DOotTKwrrB6Uc6Kk3sbr-23" value="crm_prd_info" style="rounded=1;whiteSpace=wrap;html=1;" vertex="1" parent="DOotTKwrrB6Uc6Kk3sbr-20">
          <mxGeometry x="20" y="130" width="120" height="20" as="geometry" />
        </mxCell>
        <mxCell id="DOotTKwrrB6Uc6Kk3sbr-24" value="erp_cust_az12" style="rounded=1;whiteSpace=wrap;html=1;" vertex="1" parent="DOotTKwrrB6Uc6Kk3sbr-20">
          <mxGeometry x="20" y="170" width="120" height="20" as="geometry" />
        </mxCell>
        <mxCell id="DOotTKwrrB6Uc6Kk3sbr-25" value="erp_loc_a101" style="rounded=1;whiteSpace=wrap;html=1;" vertex="1" parent="DOotTKwrrB6Uc6Kk3sbr-20">
          <mxGeometry x="20" y="210" width="120" height="20" as="geometry" />
        </mxCell>
        <mxCell id="DOotTKwrrB6Uc6Kk3sbr-26" value="erp_px_cat_g1v2" style="rounded=1;whiteSpace=wrap;html=1;" vertex="1" parent="DOotTKwrrB6Uc6Kk3sbr-20">
          <mxGeometry x="20" y="250" width="120" height="20" as="geometry" />
        </mxCell>
        <mxCell id="DOotTKwrrB6Uc6Kk3sbr-36" style="edgeStyle=orthogonalEdgeStyle;rounded=0;orthogonalLoop=1;jettySize=auto;html=1;entryX=0;entryY=0.5;entryDx=0;entryDy=0;" edge="1" parent="1" source="DOotTKwrrB6Uc6Kk3sbr-10" target="DOotTKwrrB6Uc6Kk3sbr-21">
          <mxGeometry relative="1" as="geometry" />
        </mxCell>
        <mxCell id="DOotTKwrrB6Uc6Kk3sbr-37" style="edgeStyle=orthogonalEdgeStyle;rounded=0;orthogonalLoop=1;jettySize=auto;html=1;entryX=0;entryY=0.5;entryDx=0;entryDy=0;" edge="1" parent="1" source="DOotTKwrrB6Uc6Kk3sbr-13" target="DOotTKwrrB6Uc6Kk3sbr-22">
          <mxGeometry relative="1" as="geometry" />
        </mxCell>
        <mxCell id="DOotTKwrrB6Uc6Kk3sbr-38" style="edgeStyle=orthogonalEdgeStyle;rounded=0;orthogonalLoop=1;jettySize=auto;html=1;entryX=0;entryY=0.5;entryDx=0;entryDy=0;" edge="1" parent="1" source="DOotTKwrrB6Uc6Kk3sbr-14" target="DOotTKwrrB6Uc6Kk3sbr-23">
          <mxGeometry relative="1" as="geometry" />
        </mxCell>
        <mxCell id="DOotTKwrrB6Uc6Kk3sbr-39" style="edgeStyle=orthogonalEdgeStyle;rounded=0;orthogonalLoop=1;jettySize=auto;html=1;entryX=0;entryY=0.5;entryDx=0;entryDy=0;" edge="1" parent="1" source="DOotTKwrrB6Uc6Kk3sbr-15" target="DOotTKwrrB6Uc6Kk3sbr-24">
          <mxGeometry relative="1" as="geometry" />
        </mxCell>
        <mxCell id="DOotTKwrrB6Uc6Kk3sbr-40" style="edgeStyle=orthogonalEdgeStyle;rounded=0;orthogonalLoop=1;jettySize=auto;html=1;" edge="1" parent="1" source="DOotTKwrrB6Uc6Kk3sbr-16" target="DOotTKwrrB6Uc6Kk3sbr-25">
          <mxGeometry relative="1" as="geometry" />
        </mxCell>
        <mxCell id="DOotTKwrrB6Uc6Kk3sbr-41" style="edgeStyle=orthogonalEdgeStyle;rounded=0;orthogonalLoop=1;jettySize=auto;html=1;entryX=0;entryY=0.5;entryDx=0;entryDy=0;" edge="1" parent="1" source="DOotTKwrrB6Uc6Kk3sbr-17" target="DOotTKwrrB6Uc6Kk3sbr-26">
          <mxGeometry relative="1" as="geometry" />
        </mxCell>
        <mxCell id="DOotTKwrrB6Uc6Kk3sbr-44" value="" style="endArrow=classic;html=1;rounded=0;entryX=0;entryY=0.5;entryDx=0;entryDy=0;exitX=1;exitY=0.5;exitDx=0;exitDy=0;jumpStyle=gap;" edge="1" parent="1" source="DOotTKwrrB6Uc6Kk3sbr-23" target="DOotTKwrrB6Uc6Kk3sbr-28">
          <mxGeometry width="50" height="50" relative="1" as="geometry">
            <mxPoint x="600" y="190" as="sourcePoint" />
            <mxPoint x="440" y="190" as="targetPoint" />
          </mxGeometry>
        </mxCell>
        <mxCell id="DOotTKwrrB6Uc6Kk3sbr-45" value="" style="endArrow=classic;html=1;rounded=0;exitX=1;exitY=0.5;exitDx=0;exitDy=0;entryX=0;entryY=0.25;entryDx=0;entryDy=0;jumpStyle=gap;" edge="1" parent="1" source="DOotTKwrrB6Uc6Kk3sbr-26" target="DOotTKwrrB6Uc6Kk3sbr-28">
          <mxGeometry width="50" height="50" relative="1" as="geometry">
            <mxPoint x="390" y="240" as="sourcePoint" />
            <mxPoint x="440" y="190" as="targetPoint" />
          </mxGeometry>
        </mxCell>
        <mxCell id="DOotTKwrrB6Uc6Kk3sbr-46" value="" style="endArrow=classic;html=1;rounded=0;exitX=1;exitY=0.75;exitDx=0;exitDy=0;entryX=0;entryY=0.5;entryDx=0;entryDy=0;jumpStyle=gap;" edge="1" parent="1" source="DOotTKwrrB6Uc6Kk3sbr-22" target="DOotTKwrrB6Uc6Kk3sbr-27">
          <mxGeometry width="50" height="50" relative="1" as="geometry">
            <mxPoint x="390" y="240" as="sourcePoint" />
            <mxPoint x="440" y="190" as="targetPoint" />
          </mxGeometry>
        </mxCell>
        <mxCell id="DOotTKwrrB6Uc6Kk3sbr-47" value="" style="endArrow=classic;html=1;rounded=0;exitX=1;exitY=0.5;exitDx=0;exitDy=0;jumpStyle=gap;" edge="1" parent="1" source="DOotTKwrrB6Uc6Kk3sbr-24">
          <mxGeometry width="50" height="50" relative="1" as="geometry">
            <mxPoint x="390" y="240" as="sourcePoint" />
            <mxPoint x="670" y="250" as="targetPoint" />
          </mxGeometry>
        </mxCell>
        <mxCell id="DOotTKwrrB6Uc6Kk3sbr-48" value="" style="endArrow=classic;html=1;rounded=0;exitX=1;exitY=0.25;exitDx=0;exitDy=0;jumpStyle=gap;" edge="1" parent="1" source="DOotTKwrrB6Uc6Kk3sbr-25">
          <mxGeometry width="50" height="50" relative="1" as="geometry">
            <mxPoint x="390" y="240" as="sourcePoint" />
            <mxPoint x="670" y="250" as="targetPoint" />
          </mxGeometry>
        </mxCell>
        <mxCell id="DOotTKwrrB6Uc6Kk3sbr-49" value="" style="endArrow=classic;html=1;rounded=0;exitX=1;exitY=0.5;exitDx=0;exitDy=0;entryX=0;entryY=0.5;entryDx=0;entryDy=0;" edge="1" parent="1" source="DOotTKwrrB6Uc6Kk3sbr-21" target="DOotTKwrrB6Uc6Kk3sbr-29">
          <mxGeometry width="50" height="50" relative="1" as="geometry">
            <mxPoint x="390" y="240" as="sourcePoint" />
            <mxPoint x="440" y="190" as="targetPoint" />
          </mxGeometry>
        </mxCell>
        <mxCell id="DOotTKwrrB6Uc6Kk3sbr-50" value="&lt;b&gt;&lt;font style=&quot;font-size: 24px;&quot;&gt;&amp;nbsp; &amp;nbsp; &amp;nbsp; &amp;nbsp; &amp;nbsp;Data Flow&lt;/font&gt;&lt;/b&gt;" style="text;html=1;align=center;verticalAlign=middle;resizable=0;points=[];autosize=1;strokeColor=none;fillColor=none;" vertex="1" parent="1">
          <mxGeometry x="-70" y="-7" width="200" height="40" as="geometry" />
        </mxCell>
      </root>
    </mxGraphModel>
  </diagram>
</mxfile>
